<svg width="35" height="35" viewBox="0 0 35 35" fill="none" xmlns="http://www.w3.org/2000/svg">
<circle cx="17.5" cy="17.5" r="17.5" fill="#FBFBFB"/>
<path d="M17.5 10C19.5378 10 19.792 10.0075 20.5915 10.045C21.3903 10.0825 21.934 10.2078 22.4125 10.3938C22.9075 10.5843 23.3245 10.8422 23.7415 11.2585C24.1229 11.6334 24.418 12.0869 24.6063 12.5875C24.7915 13.0652 24.9175 13.6097 24.955 14.4085C24.9903 15.208 25 15.4622 25 17.5C25 19.5378 24.9925 19.792 24.955 20.5915C24.9175 21.3903 24.7915 21.934 24.6063 22.4125C24.4185 22.9133 24.1233 23.367 23.7415 23.7415C23.3665 24.1227 22.913 24.4178 22.4125 24.6063C21.9347 24.7915 21.3903 24.9175 20.5915 24.955C19.792 24.9903 19.5378 25 17.5 25C15.4622 25 15.208 24.9925 14.4085 24.955C13.6097 24.9175 13.066 24.7915 12.5875 24.6063C12.0867 24.4184 11.6331 24.1232 11.2585 23.7415C10.8771 23.3666 10.5819 22.9131 10.3938 22.4125C10.2078 21.9347 10.0825 21.3903 10.045 20.5915C10.0097 19.792 10 19.5378 10 17.5C10 15.4622 10.0075 15.208 10.045 14.4085C10.0825 13.609 10.2078 13.066 10.3938 12.5875C10.5814 12.0866 10.8766 11.633 11.2585 11.2585C11.6333 10.8769 12.0868 10.5818 12.5875 10.3938C13.066 10.2078 13.609 10.0825 14.4085 10.045C15.208 10.0097 15.4622 10 17.5 10ZM17.5 13.75C16.5054 13.75 15.5516 14.1451 14.8483 14.8483C14.1451 15.5516 13.75 16.5054 13.75 17.5C13.75 18.4946 14.1451 19.4484 14.8483 20.1517C15.5516 20.8549 16.5054 21.25 17.5 21.25C18.4946 21.25 19.4484 20.8549 20.1517 20.1517C20.8549 19.4484 21.25 18.4946 21.25 17.5C21.25 16.5054 20.8549 15.5516 20.1517 14.8483C19.4484 14.1451 18.4946 13.75 17.5 13.75ZM22.375 13.5625C22.375 13.3139 22.2762 13.0754 22.1004 12.8996C21.9246 12.7238 21.6861 12.625 21.4375 12.625C21.1889 12.625 20.9504 12.7238 20.7746 12.8996C20.5988 13.0754 20.5 13.3139 20.5 13.5625C20.5 13.8111 20.5988 14.0496 20.7746 14.2254C20.9504 14.4012 21.1889 14.5 21.4375 14.5C21.6861 14.5 21.9246 14.4012 22.1004 14.2254C22.2762 14.0496 22.375 13.8111 22.375 13.5625ZM17.5 15.25C18.0967 15.25 18.669 15.4871 19.091 15.909C19.5129 16.331 19.75 16.9033 19.75 17.5C19.75 18.0967 19.5129 18.669 19.091 19.091C18.669 19.5129 18.0967 19.75 17.5 19.75C16.9033 19.75 16.331 19.5129 15.909 19.091C15.4871 18.669 15.25 18.0967 15.25 17.5C15.25 16.9033 15.4871 16.331 15.909 15.909C16.331 15.4871 16.9033 15.25 17.5 15.25Z" fill="#181A1B"/>
</svg>
