<svg width="35" height="35" viewBox="0 0 35 35" fill="none" xmlns="http://www.w3.org/2000/svg">
<circle cx="17.5" cy="17.5" r="17.5" fill="#FBFBFB"/>
<path d="M27.157 11.7807C26.4769 12.0863 25.7558 12.287 25.0173 12.3762C25.7957 11.9032 26.3782 11.1589 26.6564 10.2819C25.9259 10.7236 25.1251 11.0331 24.2904 11.2005C23.7298 10.591 22.9866 10.1868 22.1765 10.0507C21.3665 9.91461 20.5348 10.0543 19.8109 10.4479C19.087 10.8416 18.5113 11.4672 18.1735 12.2276C17.8356 12.9879 17.7545 13.8404 17.9427 14.6524C16.4614 14.577 15.0122 14.1859 13.6894 13.5045C12.3665 12.8231 11.1995 11.8667 10.264 10.6973C9.93292 11.2751 9.75891 11.932 9.75985 12.6006C9.75985 13.913 10.4172 15.0724 11.4167 15.7512C10.8252 15.7323 10.2468 15.57 9.72956 15.2778V15.3249C9.72974 16.1989 10.0274 17.046 10.5721 17.7224C11.1168 18.3989 11.875 18.8632 12.7182 19.0365C12.1691 19.1877 11.5934 19.21 11.0346 19.1017C11.2723 19.854 11.7356 20.512 12.3597 20.9834C12.9838 21.4549 13.7373 21.7162 14.5149 21.7309C13.7421 22.3476 12.8573 22.8034 11.911 23.0724C10.9647 23.3413 9.97553 23.4182 9 23.2985C10.7029 24.4112 12.6853 25.0019 14.71 25C21.5628 25 25.3104 19.232 25.3104 14.2298C25.3104 14.0669 25.3059 13.9021 25.2988 13.741C26.0283 13.2054 26.6578 12.5418 27.1579 11.7816L27.157 11.7807Z" fill="#181B1B"/>
</svg>
