<svg width="35" height="35" viewBox="0 0 35 35" fill="none" xmlns="http://www.w3.org/2000/svg">
<circle cx="17.5" cy="17.5" r="17.5" fill="#FBFBFB"/>
<path d="M13.7775 16.9848C14.7889 16.9848 15.608 17.7501 15.5895 18.6854C15.5895 19.6208 14.7905 20.3861 13.7775 20.3861C12.7831 20.3861 11.9639 19.6208 11.9639 18.6854C11.9639 17.7501 12.7645 16.9848 13.7775 16.9848ZM20.2635 16.9848C21.2765 16.9848 22.0771 17.7501 22.0771 18.6854C22.0771 19.6208 21.2765 20.3861 20.2635 20.3861C19.269 20.3861 18.4515 19.6208 18.4515 18.6854C18.4515 17.7501 19.2505 16.9848 20.2635 16.9848ZM21.9439 25C25.7752 24.8759 27.25 22.2857 27.25 22.2857C27.25 16.5358 24.752 11.8743 24.752 11.8743C22.2575 9.94742 19.8808 10.0001 19.8808 10.0001L19.6381 10.2859C22.5861 11.2144 23.9548 12.5545 23.9548 12.5545C22.3452 11.6396 20.5713 11.0568 18.7364 10.8403C17.5724 10.7076 16.3967 10.719 15.2355 10.8743C15.131 10.8743 15.0434 10.893 14.9405 10.91C14.3338 10.9644 12.8589 11.1957 11.0048 12.0358C10.3643 12.3386 9.98171 12.5545 9.98171 12.5545C9.98171 12.5545 11.4212 11.143 14.5411 10.2144L14.3675 10.0001C14.3675 10.0001 11.9925 9.94742 9.49627 11.876C9.49627 11.876 7 16.5358 7 22.2857C7 22.2857 8.4563 24.8742 12.2875 25C12.2875 25 12.928 24.1973 13.4505 23.5187C11.2475 22.8385 10.4166 21.4099 10.4166 21.4099C10.4166 21.4099 10.5885 21.5357 10.9003 21.7143C10.9172 21.7313 10.934 21.75 10.9694 21.767C11.0217 21.8045 11.0739 21.8215 11.1262 21.8572C11.5594 22.1072 11.9926 22.3027 12.3903 22.4643C13.1016 22.75 13.9511 23.0357 14.9405 23.233C16.4227 23.5261 17.9465 23.5319 19.4308 23.25C20.2954 23.0943 21.1388 22.8369 21.9439 22.483C22.5507 22.25 23.2266 21.9099 23.9379 21.4286C23.9379 21.4286 23.0716 22.8929 20.7995 23.5544C21.3203 24.233 21.9456 25 21.9456 25H21.9439Z" fill="#181B1B"/>
</svg>
